<?xml version="1.0" standalone="no"?>
<!DOCTYPE svg PUBLIC "-//W3C//DTD SVG 20010904//EN"
 "http://www.w3.org/TR/2001/REC-SVG-20010904/DTD/svg10.dtd">
<svg version="1.0" xmlns="http://www.w3.org/2000/svg"
 width="256.000000pt" height="256.000000pt" viewBox="0 0 256.000000 256.000000"
 preserveAspectRatio="xMidYMid meet">
<metadata>
Created by potrace 1.14, written by Peter Selinger 2001-2017
</metadata>
<g transform="translate(0.000000,256.000000) scale(0.100000,-0.100000)"
fill="#000000" stroke="none">
<path d="M0 1280 l0 -1280 1280 0 1280 0 0 1280 0 1280 -1280 0 -1280 0 0
-1280z m970 933 c0 -10 -9 -49 -18 -88 l-18 -70 -108 -3 c-85 -2 -107 0 -104
10 3 7 13 48 23 91 l19 77 103 0 c92 0 103 -2 103 -17z m-60 -248 c0 -3 -38
-159 -85 -348 -95 -378 -119 -442 -191 -506 -60 -52 -118 -71 -222 -71 l-84 0
6 32 c20 103 24 108 67 108 58 0 94 22 113 70 9 22 50 176 91 343 42 166 80
319 86 340 l10 37 104 0 c58 0 105 -2 105 -5z m671 -120 c73 -9 131 -53 165
-122 26 -53 29 -67 28 -158 -3 -252 -134 -500 -309 -585 -139 -69 -305 -61
-388 18 -61 57 -72 94 -71 232 1 108 4 136 28 210 61 187 155 313 278 370 62
29 161 50 203 44 11 -2 41 -6 66 -9z m669 -320 c0 -3 -10 -44 -21 -90 l-21
-85 -104 0 c-113 0 -111 -1 -95 60 6 19 15 54 21 78 l11 42 104 0 c58 0 105
-2 105 -5z m-70 -270 c0 -36 -173 -701 -192 -738 -34 -69 -73 -111 -130 -142
-47 -26 -65 -30 -156 -33 l-103 -4 7 28 c27 111 26 109 81 114 60 6 80 21 103
75 10 22 55 192 101 378 l84 337 102 0 c86 0 103 -3 103 -15z"/>
<path d="M1400 1681 c-66 -34 -118 -144 -159 -334 -43 -200 -16 -272 96 -254
79 13 136 105 184 296 32 123 39 233 20 269 -23 43 -85 53 -141 23z"/>
</g>
</svg>
